HIERARCHY
ROOT hip
{
  OFFSET 0 0 0
  CHANNELS 6 Xposition Yposition Zposition Zrotation Yrotation Xrotation
  JOINT abdomen
  {
    OFFSET 0 20.6881 -0.73152
    CHANNELS 3 Zrotation Xrotation Yrotation
    JOINT chest
    {
      OFFSET 0 11.7043 -0.48768
      CHANNELS 3 Zrotation Xrotation Yrotation
      JOINT neck
      {
        OFFSET 0 22.1894 -2.19456
        CHANNELS 3 Zrotation Xrotation Yrotation
        JOINT head
        {
          OFFSET -0.24384 7.07133 1.2192
          CHANNELS 3 Zrotation Xrotation Yrotation
          JOINT leftEye
          {
            OFFSET 4.14528 8.04674 8.04672
            CHANNELS 3 Zrotation Xrotation Yrotation
            End Site
            {
              OFFSET 1 0 0
            }
          }
          JOINT rightEye
          {
            OFFSET -3.6576 8.04674 8.04672
            CHANNELS 3 Zrotation Xrotation Yrotation
            End Site
            {
              OFFSET 1 0 0
            }
          }
        }
      }
      JOINT rCollar
      {
        OFFSET -2.68224 19.2634 -4.8768
        CHANNELS 3 Zrotation Xrotation Yrotation
        JOINT rShldr
        {
          OFFSET -8.77824 -1.95073 1.46304
          CHANNELS 3 Zrotation Xrotation Yrotation
          JOINT rForeArm
          {
            OFFSET -28.1742 -1.7115 0.48768
            CHANNELS 3 Zrotation Xrotation Yrotation
            JOINT rHand
            {
              OFFSET -22.5879 0.773209 7.07136
              CHANNELS 3 Zrotation Xrotation Yrotation
              JOINT rThumb1
              {
                OFFSET -1.2192 -0.487915 3.41376
                CHANNELS 3 Zrotation Xrotation Yrotation
                JOINT rThumb2
                {
                  OFFSET -3.37035 -0.52449 3.41376
                  CHANNELS 3 Zrotation Xrotation Yrotation
                  End Site
                  {
                    OFFSET -1.78271 -1.18214 1.43049
                  }
                }
              }
              JOINT rIndex1
              {
                OFFSET -7.75947 0.938293 5.60832
                CHANNELS 3 Zrotation Xrotation Yrotation
                JOINT rIndex2
                {
                  OFFSET -2.54057 -0.884171 1.56538
                  CHANNELS 3 Zrotation Xrotation Yrotation
                  End Site
                  {
                    OFFSET -1.62519 -0.234802 1.16502
                  }
                }
              }
              JOINT rMid1
              {
                OFFSET -8.24714 1.18213 3.41376
                CHANNELS 3 Zrotation Xrotation Yrotation
                JOINT rMid2
                {
                  OFFSET -3.10165 -0.590103 1.0647
                  CHANNELS 3 Zrotation Xrotation Yrotation
                  End Site
                  {
                    OFFSET -2.48547 -0.328903 0.83742
                  }
                }
              }
              JOINT rRing1
              {
                OFFSET -8.82822 0.546677 1.51678
                CHANNELS 3 Zrotation Xrotation Yrotation
                JOINT rRing2
                {
                  OFFSET -2.60934 -0.819778 -0.0198488
                  CHANNELS 3 Zrotation Xrotation Yrotation
                  End Site
                  {
                    OFFSET -2.33842 -0.294052 0.168128
                  }
                }
              }
              JOINT rPinky1
              {
                OFFSET -8.27202 -0.0477905 -0.4584
                CHANNELS 3 Zrotation Xrotation Yrotation
                JOINT rPinky2
                {
                  OFFSET -1.82734 -0.647385 -0.700984
                  CHANNELS 3 Zrotation Xrotation Yrotation
                  End Site
                  {
                    OFFSET -1.69225 -0.51767 -0.607171
                  }
                }
              }
            }
          }
        }
      }
      JOINT lCollar
      {
        OFFSET 2.68224 19.2634 -4.8768
        CHANNELS 3 Zrotation Xrotation Yrotation
        JOINT lShldr
        {
          OFFSET 8.77824 -1.95073 1.46304
          CHANNELS 3 Zrotation Xrotation Yrotation
          JOINT lForeArm
          {
            OFFSET 28.1742 -1.7115 0.48768
            CHANNELS 3 Zrotation Xrotation Yrotation
            JOINT lHand
            {
              OFFSET 22.5879 0.773209 7.07136
              CHANNELS 3 Zrotation Xrotation Yrotation
              JOINT lThumb1
              {
                OFFSET 1.2192 -0.487915 3.41376
                CHANNELS 3 Zrotation Xrotation Yrotation
                JOINT lThumb2
                {
                  OFFSET 3.37035 -0.52449 3.41376
                  CHANNELS 3 Zrotation Xrotation Yrotation
                  End Site
                  {
                    OFFSET 1.78271 -1.18214 1.43049
                  }
                }
              }
              JOINT lIndex1
              {
                OFFSET 7.75947 0.938293 5.60832
                CHANNELS 3 Zrotation Xrotation Yrotation
                JOINT lIndex2
                {
                  OFFSET 2.54057 -0.884171 1.56538
                  CHANNELS 3 Zrotation Xrotation Yrotation
                  End Site
                  {
                    OFFSET 1.62519 -0.234802 1.16502
                  }
                }
              }
              JOINT lMid1
              {
                OFFSET 8.24714 1.18213 3.41376
                CHANNELS 3 Zrotation Xrotation Yrotation
                JOINT lMid2
                {
                  OFFSET 3.10165 -0.590103 1.0647
                  CHANNELS 3 Zrotation Xrotation Yrotation
                  End Site
                  {
                    OFFSET 2.48547 -0.328903 0.83742
                  }
                }
              }
              JOINT lRing1
              {
                OFFSET 8.82822 0.546677 1.51678
                CHANNELS 3 Zrotation Xrotation Yrotation
                JOINT lRing2
                {
                  OFFSET 2.60934 -0.819778 -0.0198488
                  CHANNELS 3 Zrotation Xrotation Yrotation
                  End Site
                  {
                    OFFSET 2.33842 -0.294052 0.168128
                  }
                }
              }
              JOINT lPinky1
              {
                OFFSET 8.27202 -0.0477905 -0.4584
                CHANNELS 3 Zrotation Xrotation Yrotation
                JOINT lPinky2
                {
                  OFFSET 1.82734 -0.647385 -0.700984
                  CHANNELS 3 Zrotation Xrotation Yrotation
                  End Site
                  {
                    OFFSET 1.69225 -0.51767 -0.607171
                  }
                }
              }
            }
          }
        }
      }
    }
  }
  JOINT rButtock
  {
    OFFSET -8.77824 4.35084 1.2192
    CHANNELS 3 Zrotation Xrotation Yrotation
    JOINT rThigh
    {
      OFFSET 0 -1.70687 -2.19456
      CHANNELS 3 Zrotation Xrotation Yrotation
      JOINT rShin
      {
        OFFSET 0 -36.8199 0.73152
        CHANNELS 3 Zrotation Xrotation Yrotation
        JOINT rFoot
        {
          OFFSET 0.73152 -45.1104 -5.12064
          CHANNELS 3 Zrotation Xrotation Yrotation
          End Site
          {
            OFFSET -1.1221 -3.69964 12.103
          }
        }
      }
    }
  }
  JOINT lButtock
  {
    OFFSET 8.77824 4.35084 1.2192
    CHANNELS 3 Zrotation Xrotation Yrotation
    JOINT lThigh
    {
      OFFSET 0 -1.70687 -2.19456
      CHANNELS 3 Zrotation Xrotation Yrotation
      JOINT lShin
      {
        OFFSET 0 -36.8199 0.73152
        CHANNELS 3 Zrotation Xrotation Yrotation
        JOINT lFoot
        {
          OFFSET -0.73152 -45.1104 -5.12064
          CHANNELS 3 Zrotation Xrotation Yrotation
          End Site
          {
            OFFSET 1.1221 -3.69964 12.103
          }
        }
      }
    }
  }
}
MOTION
Frames:	9
Frame Time:	0.00833333
-168.187 85.4571 24.6834 0.0 0.0 0.0 1.92979 -0.00172235 0.0523801 0.532056 0.00506957 0.0921181 6.0236e-14 -7.95139e-16 3.97569e-16 1.82077e-13 3.18055e-15 1.19271e-15 -0.0 0.0 0.0 -0.0 0.0 0.0 3.02641e-14 -9.08508e-17 3.47873e-16 6.39087e-13 -1.8077e-15 6.75868e-15 1.09782e-11 -3.34594e-12 -3.81667e-14 1.25506e-10 2.93829e-12 1.02096e-12 2.9607e-10 -8.86829e-13 2.10553e-12 5.11294e-10 -1.53303e-12 3.60754e-12 2.96078e-10 -8.84989e-13 2.09599e-12 7.73091 5.47488 0.417314 2.96072e-10 -8.8648e-13 2.10553e-12 2.90554 0.965183 0.102902 2.96081e-10 -8.8658e-13 2.09678e-12 10.2786 0.731801 0.0259123 2.96065e-10 -8.83797e-13 2.09599e-12 2.22167 -0.733487 -0.20892 3.01684e-14 -8.61918e-17 4.96962e-17 6.35102e-13 -2.01891e-15 5.36719e-15 1.09566e-11 3.22111e-12 -2.54444e-14 1.25515e-10 -3.64067e-12 1.00824e-12 2.9605e-10 -9.10379e-13 2.09599e-12 5.11273e-10 -1.58074e-12 3.62901e-12 2.96042e-10 -9.0606e-13 2.10871e-12 -7.73091 5.47488 -0.417314 2.9605e-10 -9.10136e-13 2.09917e-12 -2.90554 0.965183 -0.102902 2.96039e-10 -9.10235e-13 2.10394e-12 -10.2786 0.731801 -0.0259123 2.96046e-10 -9.10831e-13 2.09599e-12 -2.22167 -0.733487 0.20892 -2.03217e-16 0.0 -3.88251e-19 1.9606 -7.26101 -0.192085 0.00411318 7.58502 0.106994 -0.522473 -0.330553 0.0524617 2.03217e-16 0.0 3.88251e-19 0.977792 -1.92613 0.000851251 0.008979 -2.0786 0.0739907 0.486694 3.99809 -0.136563
-175.622 85.5438 25.1239 -30.6472 17.4476 -11.3912 -3.21881 8.53235 0.507894 0.281803 -1.86674 -0.149006 0.604891 -1.79974 0.252758 4.02563 -1.4491 0.476339 -0.0 0.0 0.0 -0.0 0.0 0.0 3.90458e-13 -2.42354e-13 9.67406e-14 16.2646 -7.95824 -10.4332 -6.89371 -3.9449 9.73927 0.262029 -11.4006 -1.49021 1.11861e-09 7.37759e-10 -1.62308e-09 1.98892e-09 1.27429e-09 -2.77348e-09 1.11862e-09 7.37762e-10 -1.62309e-09 7.73091 5.47488 0.417314 1.11861e-09 7.37762e-10 -1.62308e-09 2.90554 0.965183 0.102902 1.11862e-09 7.37762e-10 -1.62309e-09 10.2786 0.731801 0.0259123 1.11861e-09 7.37764e-10 -1.62309e-09 2.22167 -0.733487 -0.20892 3.90347e-13 -2.42338e-13 9.64742e-14 -9.82948 8.0094 -9.9833 6.34212 -3.48284 -9.16829 -0.0262573 -3.64313 0.508469 -1.68385e-09 -1.00292e-08 9.79385e-10 -2.92772e-09 -1.74234e-08 1.68005e-09 -1.68386e-09 -1.00292e-08 9.794e-10 -7.73091 5.47488 -0.417314 -1.68385e-09 -1.00292e-08 9.79389e-10 -2.90554 0.965183 -0.102902 -1.68386e-09 -1.00292e-08 9.79393e-10 -10.2786 0.731801 -0.0259123 -1.68385e-09 -1.00292e-08 9.79386e-10 -2.22167 -0.733487 0.20892 -2.03217e-16 0.0 -3.88251e-19 -4.30976 -11.1867 -10.36 0.204832 21.9956 0.441181 -0.327679 -2.1344 -3.76522 2.03217e-16 0.0 3.88251e-19 12.3144 -2.69026 3.15812 -0.225431 9.3743 -0.339279 -0.504311 5.7668 3.06315
-174.449 86.8275 25.8182 -32.6498 15.438 -12.4307 -8.74963 17.5753 1.02834 -0.0189635 -3.85485 -0.401342 1.24347 -3.69495 0.491879 8.34152 -3.01453 0.935904 -0.0 0.0 0.0 -0.0 0.0 0.0 7.96027e-13 -5.09638e-13 2.02307e-13 30.4516 -15.4355 -22.1161 -12.7387 -7.7316 20.1748 -0.157875 -23.394 -3.27091 2.04385e-09 1.57816e-09 -3.46012e-09 3.65131e-09 2.72591e-09 -5.91289e-09 2.04385e-09 1.57817e-09 -3.46012e-09 7.73091 5.47488 0.417314 2.04385e-09 1.57817e-09 -3.46011e-09 2.90554 0.965183 0.102902 2.04386e-09 1.57817e-09 -3.46012e-09 10.2786 0.731801 0.0259123 2.04385e-09 1.57817e-09 -3.46012e-09 2.22167 -0.733487 -0.20892 7.95899e-13 -5.09609e-13 2.02077e-13 -17.2117 15.6736 -21.1092 11.819 -6.8379 -18.9272 0.0170395 -7.42532 1.04344 -3.86252e-09 -2.10622e-08 2.07547e-09 -6.71244e-09 -3.65937e-08 3.56061e-09 -3.86253e-09 -2.10622e-08 2.07548e-09 -7.73091 5.47488 -0.417314 -3.86253e-09 -2.10622e-08 2.07547e-09 -2.90554 0.965183 -0.102902 -3.86254e-09 -2.10622e-08 2.07547e-09 -10.2786 0.731801 -0.0259123 -3.86252e-09 -2.10622e-08 2.07547e-09 -2.22167 -0.733487 0.20892 -2.03217e-16 0.0 -3.88251e-19 -12.456 -14.6565 -21.5083 0.189212 37.2443 0.917353 -0.386216 -4.00363 -7.85785 2.03217e-16 0.0 3.88251e-19 24.4108 -3.50818 6.50499 -0.278917 21.3601 -0.821542 -1.76602 7.6394 6.4396
-173.073 87.8435 26.3388 -32.8287 13.8101 -12.6686 -13.9616 25.5933 1.55462 -0.266144 -5.61003 -0.634055 1.86249 -5.3988 0.761278 12.1493 -4.3461 1.43268 -0.0 0.0 0.0 -0.0 0.0 0.0 1.11084e-12 -7.26879e-13 2.89526e-13 40.1024 -20.6316 -33.3842 -16.7964 -10.4682 29.6902 -1.30419 -34.0993 -5.2947 2.7637e-09 2.21505e-09 -4.87345e-09 4.94416e-09 3.82595e-09 -8.32766e-09 2.76369e-09 2.21506e-09 -4.87346e-09 7.73091 5.47488 0.417314 2.76369e-09 2.21506e-09 -4.87345e-09 2.90554 0.965183 0.102902 2.7637e-09 2.21506e-09 -4.87346e-09 10.2786 0.731801 0.0259123 2.76369e-09 2.21506e-09 -4.87345e-09 2.22167 -0.733487 -0.20892 1.1107e-12 -7.26841e-13 2.89323e-13 -21.0578 21.0324 -32.0115 15.7883 -9.38007 -27.8578 0.118236 -10.9259 1.55044 -5.64365e-09 -3.00857e-08 2.93396e-09 -9.80572e-09 -5.22671e-08 5.0329e-09 -5.64366e-09 -3.00857e-08 2.93398e-09 -7.73091 5.47488 -0.417314 -5.64365e-09 -3.00857e-08 2.93397e-09 -2.90554 0.965183 -0.102902 -5.64366e-09 -3.00857e-08 2.93397e-09 -10.2786 0.731801 -0.0259123 -5.64364e-09 -3.00857e-08 2.93397e-09 -2.22167 -0.733487 0.20892 -2.03217e-16 0.0 -3.88251e-19 -20.92 -16.8535 -31.6044 -0.171438 50.8075 1.60647 -0.656866 -5.64216 -11.4489 2.03217e-16 0.0 3.88251e-19 35.2393 -4.17311 9.48759 -0.126963 32.2733 -1.36268 -3.08241 9.202 9.53924
-171.712 88.6398 26.9644 -32.5069 11.8804 -12.6958 -18.0427 31.0559 1.9646 -0.34645 -6.78323 -0.815004 2.40802 -6.62438 1.10437 14.6428 -5.0937 2.01931 -0.0 0.0 0.0 -0.0 0.0 0.0 1.19878e-12 -8.1901e-13 3.30877e-13 44.5273 -23.2268 -41.6409 -19.0651 -11.8795 36.4559 -2.73893 -41.6774 -7.18758 2.97005e-09 2.34315e-09 -5.22755e-09 5.31319e-09 4.04707e-09 -8.93083e-09 2.97004e-09 2.34316e-09 -5.22755e-09 7.73091 5.47488 0.417314 2.97005e-09 2.34316e-09 -5.22754e-09 2.90554 0.965183 0.102902 2.97005e-09 2.34316e-09 -5.22755e-09 10.2786 0.731801 0.0259123 2.97005e-09 2.34316e-09 -5.22754e-09 2.22167 -0.733487 -0.20892 1.19864e-12 -8.18976e-13 3.30678e-13 -22.0785 23.4603 -40.3364 18.1665 -10.8667 -34.3946 0.23677 -13.7253 1.96712 -6.43089e-09 -3.40854e-08 3.19851e-09 -1.11704e-08 -5.91979e-08 5.48452e-09 -6.4309e-09 -3.40854e-08 3.19852e-09 -7.73091 5.47488 -0.417314 -6.4309e-09 -3.40854e-08 3.19851e-09 -2.90554 0.965183 -0.102902 -6.43091e-09 -3.40854e-08 3.19851e-09 -10.2786 0.731801 -0.0259123 -6.43089e-09 -3.40854e-08 3.19851e-09 -2.22167 -0.733487 0.20892 -2.03217e-16 0.0 -3.88251e-19 -27.3822 -17.8451 -38.3601 -0.818421 60.1645 2.4307 -0.945121 -6.80208 -13.7411 2.03217e-16 0.0 3.88251e-19 42.7082 -4.49674 11.546 0.144065 40.5111 -1.88209 -4.10413 10.0771 11.8808
-170.28 89.3004 27.5271 -31.2573 10.2019 -12.8666 -20.4405 32.9099 2.09806 -0.158317 -7.12499 -0.927517 2.83632 -7.20387 1.56869 15.2377 -4.98939 2.76232 -0.0 0.0 0.0 -0.0 0.0 0.0 9.31157e-13 -7.17984e-13 3.08789e-13 43.9598 -24.4343 -44.8402 -19.8446 -12.2986 39.13 -3.54948 -44.8796 -8.161 2.36653e-09 1.70212e-09 -3.9597e-09 4.22728e-09 2.93946e-09 -6.7603e-09 2.36653e-09 1.70212e-09 -3.95971e-09 7.73091 5.47488 0.417314 2.36653e-09 1.70213e-09 -3.9597e-09 2.90554 0.965183 0.102902 2.36654e-09 1.70213e-09 -3.9597e-09 10.2786 0.731801 0.0259123 2.36653e-09 1.70213e-09 -3.9597e-09 2.22167 -0.733487 -0.20892 9.31025e-13 -7.17975e-13 3.08552e-13 -21.5672 23.7919 -44.1576 19.1621 -11.5237 -37.3963 0.326243 -15.6623 2.26068 -5.70225e-09 -2.9353e-08 2.5553e-09 -9.8983e-09 -5.09357e-08 4.37605e-09 -5.70226e-09 -2.9353e-08 2.55531e-09 -7.73091 5.47488 -0.417314 -5.70225e-09 -2.9353e-08 2.5553e-09 -2.90554 0.965183 -0.102902 -5.70226e-09 -2.9353e-08 2.5553e-09 -10.2786 0.731801 -0.0259123 -5.70224e-09 -2.9353e-08 2.5553e-09 -2.22167 -0.733487 0.20892 -2.03217e-16 0.0 -3.88251e-19 -30.0992 -18.3436 -40.3514 -1.22845 63.658 2.86725 -1.04233 -7.38822 -14.0894 2.03217e-16 0.0 3.88251e-19 45.3187 -4.40893 12.377 0.33462 45.2674 -2.2151 -4.51973 10.0827 13.0835
-168.79 89.59 27.9131 -29.3387 8.7053 -12.6492 -21.5866 32.1896 2.00323 0.224834 -6.87377 -0.990223 3.17534 -7.32043 2.11782 14.4534 -4.27873 3.61351 -0.0 0.0 0.0 -0.0 0.0 0.0 4.11363e-13 -4.79845e-13 2.41349e-13 40.3088 -25.2835 -44.2885 -19.7655 -12.2606 38.8475 -3.553 -44.9942 -8.18441 1.18888e-09 5.14411e-10 -1.53995e-09 2.10982e-09 8.87412e-10 -2.61987e-09 1.18888e-09 5.14412e-10 -1.53995e-09 7.73091 5.47488 0.417314 1.18888e-09 5.14414e-10 -1.53995e-09 2.90554 0.965183 0.102902 1.18888e-09 5.14418e-10 -1.53995e-09 10.2786 0.731801 0.0259123 1.18887e-09 5.14414e-10 -1.53994e-09 2.22167 -0.733487 -0.20892 4.11254e-13 -4.79877e-13 2.41045e-13 -20.4167 23.2341 -44.6301 19.3678 -11.8049 -37.8388 0.380919 -16.9781 2.46131 -3.89675e-09 -1.84643e-08 1.26732e-09 -6.75314e-09 -3.19618e-08 2.15947e-09 -3.89675e-09 -1.84643e-08 1.26734e-09 -7.73091 5.47488 -0.417314 -3.89675e-09 -1.84643e-08 1.26733e-09 -2.90554 0.965183 -0.102902 -3.89676e-09 -1.84643e-08 1.26733e-09 -10.2786 0.731801 -0.0259123 -3.89674e-09 -1.84643e-08 1.26732e-09 -2.22167 -0.733487 0.20892 -2.03217e-16 0.0 -3.88251e-19 -29.9533 -18.7723 -38.9057 -1.15906 62.9674 2.7318 -0.949368 -7.57897 -13.045 2.03217e-16 0.0 3.88251e-19 44.4506 -4.03054 12.327 0.371483 47.5269 -2.33889 -4.45805 9.48252 13.4672
-167.522 89.9569 28.3833 -29.5503 6.7759 -12.8163 -22.1052 30.4977 1.83363 0.655038 -6.41236 -1.02334 3.47844 -7.21382 2.66899 13.1465 -3.38206 4.45381 -0.0 0.0 0.0 -0.0 0.0 0.0 -1.48604e-13 -2.15668e-13 1.54529e-13 35.5688 -25.8913 -42.185 -19.3686 -12.0705 37.4406 -3.23437 -44.0094 -7.84352 -7.28688e-11 -8.01035e-10 1.11818e-09 -1.6174e-10 -1.38519e-09 1.9286e-09 -7.28661e-11 -8.01037e-10 1.11817e-09 7.73091 5.47488 0.417314 -7.28687e-11 -8.01036e-10 1.11817e-09 2.90554 0.965183 0.102902 -7.28652e-11 -8.0103e-10 1.11817e-09 10.2786 0.731801 0.0259123 -7.28769e-11 -8.01035e-10 1.11818e-09 2.22167 -0.733487 -0.20892 -1.4869e-13 -2.1574e-13 1.5416e-13 -18.9954 22.3786 -43.7186 19.3071 -11.9988 -37.2931 0.411965 -17.8582 2.59571 -1.85965e-09 -7.83123e-09 -1.56623e-10 -3.20547e-09 -1.34292e-08 -2.90506e-10 -1.85965e-09 -7.83122e-09 -1.56607e-10 -7.73091 5.47488 -0.417314 -1.85965e-09 -7.83122e-09 -1.56615e-10 -2.90554 0.965183 -0.102902 -1.85966e-09 -7.83123e-09 -1.56616e-10 -10.2786 0.731801 -0.0259123 -1.85964e-09 -7.83124e-09 -1.56624e-10 -2.22167 -0.733487 0.20892 -2.03217e-16 0.0 -3.88251e-19 -28.5783 -19.1224 -35.872 -0.918652 60.5787 2.40138 -0.766436 -7.55971 -11.5966 2.03217e-16 0.0 3.88251e-19 42.3194 -3.46746 11.8093 0.31553 48.3753 -2.34095 -4.20269 8.58243 13.5906
-166.092 90.1042 28.785 -28.2984 5.32 -13.1787 -22.6078 29.4372 1.73435 0.982622 -6.12353 -1.0472 3.80747 -7.12399 3.14057 12.2038 -2.71856 5.16546 -0.0 0.0 0.0 -0.0 0.0 0.0 -5.36748e-13 -3.65298e-14 7.42958e-14 31.5788 -26.2847 -40.813 -19.1876 -12.0231 36.7424 -3.13798 -43.9075 -7.77486 -9.28647e-10 -1.82528e-09 3.10113e-09 -1.70997e-09 -3.15448e-09 5.32324e-09 -9.28642e-10 -1.82528e-09 3.10113e-09 7.73091 5.47488 0.417314 -9.28647e-10 -1.82528e-09 3.10113e-09 2.90554 0.965183 0.102902 -9.28644e-10 -1.82528e-09 3.10112e-09 10.2786 0.731801 0.0259123 -9.28656e-10 -1.82528e-09 3.10114e-09 2.22167 -0.733487 -0.20892 -5.36823e-13 -3.6623e-14 7.38982e-14 -17.6611 21.716 -43.3512 19.4422 -12.3261 -37.3426 0.438415 -18.4875 2.69334 -4.36192e-10 -3.86597e-09 -1.20773e-09 -7.25887e-10 -6.49081e-09 -2.09917e-09 -4.36196e-10 -3.86596e-09 -1.20772e-09 -7.73091 5.47488 -0.417314 -4.36193e-10 -3.86596e-09 -1.20772e-09 -2.90554 0.965183 -0.102902 -4.36203e-10 -3.86597e-09 -1.20772e-09 -10.2786 0.731801 -0.0259123 -4.36191e-10 -3.86598e-09 -1.20773e-09 -2.22167 -0.733487 0.20892 -2.03217e-16 0.0 -3.88251e-19 -27.6455 -19.4131 -33.1258 -0.789599 58.9783 2.22897 -0.596663 -7.52352 -10.7341 2.03217e-16 0.0 3.88251e-19 41.1353 -2.82633 11.2359 0.282704 48.8966 -2.35619 -4.02821 7.68708 14.009
